<?xml version="1.0" encoding="UTF-8" standalone="no"?>
<!DOCTYPE svg PUBLIC "-//W3C//DTD SVG 1.1//EN"
 "http://www.w3.org/Graphics/SVG/1.1/DTD/svg11.dtd">
<!-- Generated by graphviz version 5.0.0 (20220707.1540)
 -->
<!-- Title: StorageDiagram Pages: 1 -->
<svg width="1797pt" height="760pt"
 viewBox="0.00 0.00 1796.66 760.00" xmlns="http://www.w3.org/2000/svg" xmlns:xlink="http://www.w3.org/1999/xlink">
<g id="graph0" class="graph" transform="scale(1 1) rotate(0) translate(4 756)">
<title>StorageDiagram</title>
<polygon fill="white" stroke="transparent" points="-4,4 -4,-756 1792.66,-756 1792.66,4 -4,4"/>
<!-- 6 -->
<g id="node1" class="node">
<title>6</title>
<polygon fill="#f2f2f2" stroke="black" points="0,-196.7 0,-643.1 536.08,-643.1 536.08,-196.7 0,-196.7"/>
<text text-anchor="middle" x="268.04" y="-626.5" font-family="Courier New" font-size="14.00">GasContract &lt;&lt;Contract&gt;&gt;</text>
<polyline fill="none" stroke="black" points="0,-618.3 536.08,-618.3 "/>
<text text-anchor="middle" x="29" y="-601.7" font-family="Courier New" font-size="14.00">slot</text>
<polyline fill="none" stroke="black" points="0,-593.5 58.01,-593.5 "/>
<text text-anchor="middle" x="29" y="-576.9" font-family="Courier New" font-size="14.00">0</text>
<polyline fill="none" stroke="black" points="0,-568.7 58.01,-568.7 "/>
<text text-anchor="middle" x="29" y="-552.1" font-family="Courier New" font-size="14.00">1</text>
<polyline fill="none" stroke="black" points="0,-543.9 58.01,-543.9 "/>
<text text-anchor="middle" x="29" y="-527.3" font-family="Courier New" font-size="14.00">2</text>
<polyline fill="none" stroke="black" points="0,-519.1 58.01,-519.1 "/>
<text text-anchor="middle" x="29" y="-502.5" font-family="Courier New" font-size="14.00">3</text>
<polyline fill="none" stroke="black" points="0,-494.3 58.01,-494.3 "/>
<text text-anchor="middle" x="29" y="-477.7" font-family="Courier New" font-size="14.00">4</text>
<polyline fill="none" stroke="black" points="0,-469.5 58.01,-469.5 "/>
<text text-anchor="middle" x="29" y="-452.9" font-family="Courier New" font-size="14.00">5</text>
<polyline fill="none" stroke="black" points="0,-444.7 58.01,-444.7 "/>
<text text-anchor="middle" x="29" y="-428.1" font-family="Courier New" font-size="14.00">6</text>
<polyline fill="none" stroke="black" points="0,-419.9 58.01,-419.9 "/>
<text text-anchor="middle" x="29" y="-403.3" font-family="Courier New" font-size="14.00">7</text>
<polyline fill="none" stroke="black" points="0,-395.1 58.01,-395.1 "/>
<text text-anchor="middle" x="29" y="-378.5" font-family="Courier New" font-size="14.00">8</text>
<polyline fill="none" stroke="black" points="0,-370.3 58.01,-370.3 "/>
<text text-anchor="middle" x="29" y="-353.7" font-family="Courier New" font-size="14.00">9</text>
<polyline fill="none" stroke="black" points="0,-345.5 58.01,-345.5 "/>
<text text-anchor="middle" x="29" y="-328.9" font-family="Courier New" font-size="14.00">10</text>
<polyline fill="none" stroke="black" points="0,-320.7 58.01,-320.7 "/>
<text text-anchor="middle" x="29" y="-304.1" font-family="Courier New" font-size="14.00">11&#45;15</text>
<polyline fill="none" stroke="black" points="0,-295.9 58.01,-295.9 "/>
<text text-anchor="middle" x="29" y="-279.3" font-family="Courier New" font-size="14.00">16</text>
<polyline fill="none" stroke="black" points="0,-271.1 58.01,-271.1 "/>
<text text-anchor="middle" x="29" y="-254.5" font-family="Courier New" font-size="14.00">17</text>
<polyline fill="none" stroke="black" points="0,-246.3 58.01,-246.3 "/>
<text text-anchor="middle" x="29" y="-229.7" font-family="Courier New" font-size="14.00">18</text>
<polyline fill="none" stroke="black" points="0,-221.5 58.01,-221.5 "/>
<text text-anchor="middle" x="29" y="-204.9" font-family="Courier New" font-size="14.00">19</text>
<polyline fill="none" stroke="black" points="58.01,-196.7 58.01,-618.3 "/>
<text text-anchor="middle" x="297.04" y="-601.7" font-family="Courier New" font-size="14.00">type: &lt;inherited contract&gt;.variable (bytes)</text>
<polyline fill="none" stroke="black" points="58.01,-593.5 536.08,-593.5 "/>
<text text-anchor="middle" x="297.02" y="-576.9" font-family="Courier New" font-size="14.00">uint256: totalSupply (32)</text>
<polyline fill="none" stroke="black" points="58.01,-568.7 536.08,-568.7 "/>
<text text-anchor="middle" x="296.63" y="-552.1" font-family="Courier New" font-size="14.00">uint256: paymentCounter (32)</text>
<polyline fill="none" stroke="black" points="58.01,-543.9 536.08,-543.9 "/>
<text text-anchor="middle" x="296.62" y="-527.3" font-family="Courier New" font-size="14.00">uint256: tradeFlag (32)</text>
<polyline fill="none" stroke="black" points="58.01,-519.1 536.08,-519.1 "/>
<text text-anchor="middle" x="296.72" y="-502.5" font-family="Courier New" font-size="14.00">uint256: dividendFlag (32)</text>
<polyline fill="none" stroke="black" points="58.01,-494.3 536.08,-494.3 "/>
<text text-anchor="middle" x="296.72" y="-477.7" font-family="Courier New" font-size="14.00">uint256: tradePercent (32)</text>
<polyline fill="none" stroke="black" points="58.01,-469.5 536.08,-469.5 "/>
<text text-anchor="middle" x="296.62" y="-452.9" font-family="Courier New" font-size="14.00">uint256: tradeMode (32)</text>
<polyline fill="none" stroke="black" points="58.01,-444.7 536.08,-444.7 "/>
<text text-anchor="middle" x="296.94" y="-428.1" font-family="Courier New" font-size="14.00">mapping(address=&gt;Payment[]): payments (32)</text>
<polyline fill="none" stroke="black" points="58.01,-419.9 536.08,-419.9 "/>
<text text-anchor="middle" x="297.03" y="-403.3" font-family="Courier New" font-size="14.00">mapping(address=&gt;uint256): balances (32)</text>
<polyline fill="none" stroke="black" points="58.01,-395.1 536.08,-395.1 "/>
<text text-anchor="middle" x="296.73" y="-378.5" font-family="Courier New" font-size="14.00">mapping(address=&gt;uint256): whitelist (32)</text>
<polyline fill="none" stroke="black" points="58.01,-370.3 536.08,-370.3 "/>
<text text-anchor="middle" x="297.04" y="-353.7" font-family="Courier New" font-size="14.00">mapping(address=&gt;ImportantStruct): whiteListStruct (32)</text>
<polyline fill="none" stroke="black" points="58.01,-345.5 536.08,-345.5 "/>
<text text-anchor="middle" x="154.22" y="-328.9" font-family="Courier New" font-size="14.00">unallocated (12)</text>
<polyline fill="none" stroke="black" points="250.43,-320.7 250.43,-345.5 "/>
<text text-anchor="middle" x="392.85" y="-328.9" font-family="Courier New" font-size="14.00">address: contractOwner (20)</text>
<polyline fill="none" stroke="black" points="58.01,-320.7 536.08,-320.7 "/>
<text text-anchor="middle" x="296.93" y="-304.1" font-family="Courier New" font-size="14.00">address[5]: administrators (160)</text>
<polyline fill="none" stroke="black" points="58.01,-295.9 536.08,-295.9 "/>
<text text-anchor="middle" x="175.22" y="-279.3" font-family="Courier New" font-size="14.00">unallocated (31)</text>
<polyline fill="none" stroke="black" points="292.43,-271.1 292.43,-295.9 "/>
<text text-anchor="middle" x="413.84" y="-279.3" font-family="Courier New" font-size="14.00">bool: isReady (1)</text>
<polyline fill="none" stroke="black" points="58.01,-271.1 536.08,-271.1 "/>
<text text-anchor="middle" x="296.82" y="-254.5" font-family="Courier New" font-size="14.00">uint256: wasLastOdd (32)</text>
<polyline fill="none" stroke="black" points="58.01,-246.3 536.08,-246.3 "/>
<text text-anchor="middle" x="297.04" y="-229.7" font-family="Courier New" font-size="14.00">mapping(address=&gt;uint256): isOddWhitelistUser (32)</text>
<polyline fill="none" stroke="black" points="58.01,-221.5 536.08,-221.5 "/>
<text text-anchor="middle" x="297.03" y="-204.9" font-family="Courier New" font-size="14.00">History[]: paymentHistory (32)</text>
</g>
<!-- 1 -->
<g id="node2" class="node">
<title>1</title>
<polygon fill="#f2f2f2" stroke="black" points="643.09,-528.3 643.09,-751.5 1111.16,-751.5 1111.16,-528.3 643.09,-528.3"/>
<text text-anchor="middle" x="877.13" y="-734.9" font-family="Courier New" font-size="14.00">Payment &lt;&lt;Struct&gt;&gt;</text>
<polyline fill="none" stroke="black" points="643.09,-726.7 1111.16,-726.7 "/>
<text text-anchor="middle" x="676.3" y="-710.1" font-family="Courier New" font-size="14.00">offset</text>
<polyline fill="none" stroke="black" points="643.09,-701.9 709.5,-701.9 "/>
<text text-anchor="middle" x="676.3" y="-685.3" font-family="Courier New" font-size="14.00">0</text>
<polyline fill="none" stroke="black" points="643.09,-677.1 709.5,-677.1 "/>
<text text-anchor="middle" x="676.3" y="-660.5" font-family="Courier New" font-size="14.00">1</text>
<polyline fill="none" stroke="black" points="643.09,-652.3 709.5,-652.3 "/>
<text text-anchor="middle" x="676.3" y="-635.7" font-family="Courier New" font-size="14.00">2</text>
<polyline fill="none" stroke="black" points="643.09,-627.5 709.5,-627.5 "/>
<text text-anchor="middle" x="676.3" y="-610.9" font-family="Courier New" font-size="14.00">3</text>
<polyline fill="none" stroke="black" points="643.09,-602.7 709.5,-602.7 "/>
<text text-anchor="middle" x="676.3" y="-586.1" font-family="Courier New" font-size="14.00">4</text>
<polyline fill="none" stroke="black" points="643.09,-577.9 709.5,-577.9 "/>
<text text-anchor="middle" x="676.3" y="-561.3" font-family="Courier New" font-size="14.00">5</text>
<polyline fill="none" stroke="black" points="643.09,-553.1 709.5,-553.1 "/>
<text text-anchor="middle" x="676.3" y="-536.5" font-family="Courier New" font-size="14.00">6</text>
<polyline fill="none" stroke="black" points="709.5,-528.3 709.5,-726.7 "/>
<text text-anchor="middle" x="910.33" y="-710.1" font-family="Courier New" font-size="14.00">type: variable (bytes)</text>
<polyline fill="none" stroke="black" points="709.5,-701.9 1111.16,-701.9 "/>
<text text-anchor="middle" x="784.71" y="-685.3" font-family="Courier New" font-size="14.00">unallocated (31)</text>
<polyline fill="none" stroke="black" points="859.92,-677.1 859.92,-701.9 "/>
<text text-anchor="middle" x="985.54" y="-685.3" font-family="Courier New" font-size="14.00">PaymentType: paymentType (1)</text>
<polyline fill="none" stroke="black" points="709.5,-677.1 1111.16,-677.1 "/>
<text text-anchor="middle" x="910.12" y="-660.5" font-family="Courier New" font-size="14.00">uint256: paymentID (32)</text>
<polyline fill="none" stroke="black" points="709.5,-652.3 1111.16,-652.3 "/>
<text text-anchor="middle" x="797.21" y="-635.7" font-family="Courier New" font-size="14.00">unallocated (31)</text>
<polyline fill="none" stroke="black" points="884.92,-627.5 884.92,-652.3 "/>
<text text-anchor="middle" x="997.84" y="-635.7" font-family="Courier New" font-size="14.00">bool: adminUpdated (1)</text>
<polyline fill="none" stroke="black" points="709.5,-627.5 1111.16,-627.5 "/>
<text text-anchor="middle" x="910.22" y="-610.9" font-family="Courier New" font-size="14.00">string: recipientName (32)</text>
<polyline fill="none" stroke="black" points="709.5,-602.7 1111.16,-602.7 "/>
<text text-anchor="middle" x="795.21" y="-586.1" font-family="Courier New" font-size="14.00">unallocated (12)</text>
<polyline fill="none" stroke="black" points="880.92,-577.9 880.92,-602.7 "/>
<text text-anchor="middle" x="996.04" y="-586.1" font-family="Courier New" font-size="14.00">address: recipient (20)</text>
<polyline fill="none" stroke="black" points="709.5,-577.9 1111.16,-577.9 "/>
<text text-anchor="middle" x="803.21" y="-561.3" font-family="Courier New" font-size="14.00">unallocated (12)</text>
<polyline fill="none" stroke="black" points="896.92,-553.1 896.92,-577.9 "/>
<text text-anchor="middle" x="1003.74" y="-561.3" font-family="Courier New" font-size="14.00">address: admin (20)</text>
<polyline fill="none" stroke="black" points="709.5,-553.1 1111.16,-553.1 "/>
<text text-anchor="middle" x="910.01" y="-536.5" font-family="Courier New" font-size="14.00">uint256: amount (32)</text>
</g>
<!-- 6&#45;&gt;1 -->
<g id="edge1" class="edge">
<title>6:14&#45;&gt;1</title>
<path fill="none" stroke="black" d="M536.08,-431.9C577.93,-431.9 542.29,-489.51 572.08,-518.9 590.28,-536.85 611.48,-552.24 634.06,-565.39"/>
<polygon fill="black" stroke="black" points="632.35,-568.45 642.77,-570.33 635.8,-562.36 632.35,-568.45"/>
</g>
<!-- 2 -->
<g id="node3" class="node">
<title>2</title>
<polygon fill="#f2f2f2" stroke="black" points="572.08,-336.1 572.08,-509.7 1182.17,-509.7 1182.17,-336.1 572.08,-336.1"/>
<text text-anchor="middle" x="877.13" y="-493.1" font-family="Courier New" font-size="14.00">ImportantStruct &lt;&lt;Struct&gt;&gt;</text>
<polyline fill="none" stroke="black" points="572.08,-484.9 1182.17,-484.9 "/>
<text text-anchor="middle" x="605.29" y="-468.3" font-family="Courier New" font-size="14.00">offset</text>
<polyline fill="none" stroke="black" points="572.08,-460.1 638.49,-460.1 "/>
<text text-anchor="middle" x="605.29" y="-443.5" font-family="Courier New" font-size="14.00">0</text>
<polyline fill="none" stroke="black" points="572.08,-435.3 638.49,-435.3 "/>
<text text-anchor="middle" x="605.29" y="-418.7" font-family="Courier New" font-size="14.00">1</text>
<polyline fill="none" stroke="black" points="572.08,-410.5 638.49,-410.5 "/>
<text text-anchor="middle" x="605.29" y="-393.9" font-family="Courier New" font-size="14.00">2</text>
<polyline fill="none" stroke="black" points="572.08,-385.7 638.49,-385.7 "/>
<text text-anchor="middle" x="605.29" y="-369.1" font-family="Courier New" font-size="14.00">3</text>
<polyline fill="none" stroke="black" points="572.08,-360.9 638.49,-360.9 "/>
<text text-anchor="middle" x="605.29" y="-344.3" font-family="Courier New" font-size="14.00">4</text>
<polyline fill="none" stroke="black" points="638.49,-336.1 638.49,-484.9 "/>
<text text-anchor="middle" x="910.33" y="-468.3" font-family="Courier New" font-size="14.00">type: variable (bytes)</text>
<polyline fill="none" stroke="black" points="638.49,-460.1 1182.17,-460.1 "/>
<text text-anchor="middle" x="910" y="-443.5" font-family="Courier New" font-size="14.00">uint256: amount (32)</text>
<polyline fill="none" stroke="black" points="638.49,-435.3 1182.17,-435.3 "/>
<text text-anchor="middle" x="910" y="-418.7" font-family="Courier New" font-size="14.00">uint256: valueA (32)</text>
<polyline fill="none" stroke="black" points="638.49,-410.5 1182.17,-410.5 "/>
<text text-anchor="middle" x="909.91" y="-393.9" font-family="Courier New" font-size="14.00">uint256: bigValue (32)</text>
<polyline fill="none" stroke="black" points="638.49,-385.7 1182.17,-385.7 "/>
<text text-anchor="middle" x="910" y="-369.1" font-family="Courier New" font-size="14.00">uint256: valueB (32)</text>
<polyline fill="none" stroke="black" points="638.49,-360.9 1182.17,-360.9 "/>
<text text-anchor="middle" x="713.7" y="-344.3" font-family="Courier New" font-size="14.00">unallocated (11)</text>
<polyline fill="none" stroke="black" points="788.91,-336.1 788.91,-360.9 "/>
<text text-anchor="middle" x="880.93" y="-344.3" font-family="Courier New" font-size="14.00">address: sender (20)</text>
<polyline fill="none" stroke="black" points="972.94,-336.1 972.94,-360.9 "/>
<text text-anchor="middle" x="1077.56" y="-344.3" font-family="Courier New" font-size="14.00">bool: paymentStatus (1)</text>
</g>
<!-- 6&#45;&gt;2 -->
<g id="edge2" class="edge">
<title>6:23&#45;&gt;2</title>
<path fill="none" stroke="black" d="M536.08,-357.9C544.51,-357.9 553.03,-358.09 561.61,-358.46"/>
<polygon fill="black" stroke="black" points="561.54,-361.96 571.71,-358.97 561.9,-354.97 561.54,-361.96"/>
</g>
<!-- 3 -->
<g id="node4" class="node">
<title>3</title>
<polygon fill="#f2f2f2" stroke="black" points="717.9,-168.5 717.9,-317.3 1036.35,-317.3 1036.35,-168.5 717.9,-168.5"/>
<text text-anchor="middle" x="877.13" y="-300.7" font-family="Courier New" font-size="14.00">address[5]: administrators &lt;&lt;Array&gt;&gt;</text>
<polyline fill="none" stroke="black" points="717.9,-292.5 1036.35,-292.5 "/>
<text text-anchor="middle" x="742.7" y="-275.9" font-family="Courier New" font-size="14.00">slot</text>
<polyline fill="none" stroke="black" points="717.9,-267.7 767.51,-267.7 "/>
<text text-anchor="middle" x="742.7" y="-251.1" font-family="Courier New" font-size="14.00">11</text>
<polyline fill="none" stroke="black" points="717.9,-242.9 767.51,-242.9 "/>
<text text-anchor="middle" x="742.7" y="-226.3" font-family="Courier New" font-size="14.00">12</text>
<polyline fill="none" stroke="black" points="717.9,-218.1 767.51,-218.1 "/>
<text text-anchor="middle" x="742.7" y="-201.5" font-family="Courier New" font-size="14.00">14</text>
<polyline fill="none" stroke="black" points="717.9,-193.3 767.51,-193.3 "/>
<text text-anchor="middle" x="742.7" y="-176.7" font-family="Courier New" font-size="14.00">15</text>
<polyline fill="none" stroke="black" points="767.51,-168.5 767.51,-292.5 "/>
<text text-anchor="middle" x="901.63" y="-275.9" font-family="Courier New" font-size="14.00">type: variable (bytes)</text>
<polyline fill="none" stroke="black" points="767.51,-267.7 1035.75,-267.7 "/>
<text text-anchor="middle" x="842.72" y="-251.1" font-family="Courier New" font-size="14.00">unallocated (12)</text>
<polyline fill="none" stroke="black" points="917.93,-242.9 917.93,-267.7 "/>
<text text-anchor="middle" x="976.84" y="-251.1" font-family="Courier New" font-size="14.00">address (20)</text>
<polyline fill="none" stroke="black" points="767.51,-242.9 1035.75,-242.9 "/>
<text text-anchor="middle" x="842.72" y="-226.3" font-family="Courier New" font-size="14.00">unallocated (12)</text>
<polyline fill="none" stroke="black" points="917.93,-218.1 917.93,-242.9 "/>
<text text-anchor="middle" x="976.84" y="-226.3" font-family="Courier New" font-size="14.00">address (20)</text>
<polyline fill="none" stroke="black" points="767.51,-218.1 1035.75,-218.1 "/>
<text text-anchor="middle" x="842.72" y="-201.5" font-family="Courier New" font-size="14.00">unallocated (12)</text>
<polyline fill="none" stroke="black" points="917.93,-193.3 917.93,-218.1 "/>
<text text-anchor="middle" x="976.84" y="-201.5" font-family="Courier New" font-size="14.00">address (20)</text>
<polyline fill="none" stroke="black" points="767.51,-193.3 1035.75,-193.3 "/>
<text text-anchor="middle" x="842.72" y="-176.7" font-family="Courier New" font-size="14.00">unallocated (12)</text>
<polyline fill="none" stroke="black" points="917.93,-168.5 917.93,-193.3 "/>
<text text-anchor="middle" x="976.84" y="-176.7" font-family="Courier New" font-size="14.00">address (20)</text>
</g>
<!-- 6&#45;&gt;3 -->
<g id="edge3" class="edge">
<title>6:29&#45;&gt;3</title>
<path fill="none" stroke="black" d="M536.08,-307.9C592.52,-307.9 653.31,-299.15 707.66,-288.08"/>
<polygon fill="black" stroke="black" points="708.66,-291.45 717.74,-285.98 707.23,-284.59 708.66,-291.45"/>
</g>
<!-- 5 -->
<g id="node6" class="node">
<title>5</title>
<polygon fill="#f2f2f2" stroke="black" points="591.88,-58.3 591.88,-149.5 1162.37,-149.5 1162.37,-58.3 591.88,-58.3"/>
<text text-anchor="middle" x="877.13" y="-132.9" font-family="Courier New" font-size="14.00">History[]: paymentHistory &lt;&lt;Array&gt;&gt;</text>
<text text-anchor="middle" x="877.13" y="-116.1" font-family="Courier New" font-size="14.00">0x66de8ffda797e3de9c05e8fc57b3bf0ec28a930d40b0d285d93c06501cf6a090</text>
<polyline fill="none" stroke="black" points="591.88,-107.9 1162.37,-107.9 "/>
<text text-anchor="middle" x="700.59" y="-91.3" font-family="Courier New" font-size="14.00">offset</text>
<polyline fill="none" stroke="black" points="591.88,-83.1 809.29,-83.1 "/>
<text text-anchor="middle" x="700.59" y="-66.5" font-family="Courier New" font-size="14.00">0&#45;2</text>
<polyline fill="none" stroke="black" points="809.29,-58.3 809.29,-107.9 "/>
<text text-anchor="middle" x="985.7" y="-91.3" font-family="Courier New" font-size="14.00">type: variable (bytes)</text>
<polyline fill="none" stroke="black" points="809.29,-83.1 1162.12,-83.1 "/>
<text text-anchor="middle" x="985.7" y="-66.5" font-family="Courier New" font-size="14.00">History (96)</text>
</g>
<!-- 6&#45;&gt;5 -->
<g id="edge4" class="edge">
<title>6:37&#45;&gt;5</title>
<path fill="none" stroke="black" d="M536.08,-208.9C563.47,-208.9 548.92,-173.51 572.08,-158.9 575.56,-156.71 579.09,-154.6 582.69,-152.57"/>
<polygon fill="black" stroke="black" points="584.6,-155.51 591.74,-147.68 581.28,-149.35 584.6,-155.51"/>
</g>
<!-- 4 -->
<g id="node5" class="node">
<title>4</title>
<polygon fill="#f2f2f2" stroke="black" points="1218.17,-0.5 1218.17,-141.3 1788.66,-141.3 1788.66,-0.5 1218.17,-0.5"/>
<text text-anchor="middle" x="1503.42" y="-124.7" font-family="Courier New" font-size="14.00">History &lt;&lt;Struct&gt;&gt;</text>
<text text-anchor="middle" x="1503.42" y="-107.9" font-family="Courier New" font-size="14.00">0x66de8ffda797e3de9c05e8fc57b3bf0ec28a930d40b0d285d93c06501cf6a090</text>
<polyline fill="none" stroke="black" points="1218.17,-99.7 1788.66,-99.7 "/>
<text text-anchor="middle" x="1287.38" y="-83.1" font-family="Courier New" font-size="14.00">offset</text>
<polyline fill="none" stroke="black" points="1218.17,-74.9 1356.58,-74.9 "/>
<text text-anchor="middle" x="1287.38" y="-58.3" font-family="Courier New" font-size="14.00">0</text>
<polyline fill="none" stroke="black" points="1218.17,-50.1 1356.58,-50.1 "/>
<text text-anchor="middle" x="1287.38" y="-33.5" font-family="Courier New" font-size="14.00">1</text>
<polyline fill="none" stroke="black" points="1218.17,-25.3 1356.58,-25.3 "/>
<text text-anchor="middle" x="1287.38" y="-8.7" font-family="Courier New" font-size="14.00">2</text>
<polyline fill="none" stroke="black" points="1356.58,-0.5 1356.58,-99.7 "/>
<text text-anchor="middle" x="1572.41" y="-83.1" font-family="Courier New" font-size="14.00">type: variable (bytes)</text>
<polyline fill="none" stroke="black" points="1356.58,-74.9 1788.23,-74.9 "/>
<text text-anchor="middle" x="1572.4" y="-58.3" font-family="Courier New" font-size="14.00">uint256: lastUpdate (32)</text>
<polyline fill="none" stroke="black" points="1356.58,-50.1 1788.23,-50.1 "/>
<text text-anchor="middle" x="1449.79" y="-33.5" font-family="Courier New" font-size="14.00">unallocated (12)</text>
<polyline fill="none" stroke="black" points="1543,-25.3 1543,-50.1 "/>
<text text-anchor="middle" x="1665.62" y="-33.5" font-family="Courier New" font-size="14.00">address: updatedBy (20)</text>
<polyline fill="none" stroke="black" points="1356.58,-25.3 1788.23,-25.3 "/>
<text text-anchor="middle" x="1572.1" y="-8.7" font-family="Courier New" font-size="14.00">uint256: blockNumber (32)</text>
</g>
<!-- 5&#45;&gt;4 -->
<g id="edge5" class="edge">
<title>5:36&#45;&gt;4</title>
<path fill="none" stroke="black" d="M1163.13,-70.9C1177.6,-70.9 1192.43,-70.9 1207.4,-70.9"/>
<polygon fill="black" stroke="black" points="1207.79,-74.4 1217.79,-70.9 1207.79,-67.4 1207.79,-74.4"/>
</g>
</g>
</svg>
